# This file uses centimeters as units for non-parametric coordinates.

mtllib Wing.mtl
g default
v 2.000000 10.035834 -0.364246
v 15.570002 11.336095 -1.713565
v 12.764845 10.001527 -1.713565
v 2.000000 5.360807 0.000000
v 7.000000 11.968392 0.619719
v 6.753948 8.487836 -3.328924
v 6.876974 11.698327 -2.680658
v 2.000000 6.664599 -1.386001
v 3.853080 10.404072 0.412965
v 3.845206 8.527004 -3.312297
v 3.850455 9.546963 -1.367816
v 2.000000 8.146370 -1.506692
v 2.916045 10.049272 -0.030876
v 2.915717 8.761061 -1.643480
v 3.847831 9.003332 -2.701313
v 2.000000 7.175769 -1.733113
v 2.915389 7.977285 -2.586623
v 2.915061 7.419304 -2.793830
v 6.958992 11.690801 -0.563733
v 4.832091 10.945409 0.788518
v 4.823233 10.379963 -0.929463
v 5.874068 11.518457 0.917022
v 5.853072 11.135947 -0.578181
v 4.805517 9.760724 -3.256314
v 4.814375 10.085035 -2.389849
v 6.917983 11.739924 -1.739128
v 5.832076 11.053523 -1.964898
v 5.811079 10.893490 -2.940796
v 3.837332 6.061474 -2.310377
v 2.000000 6.230002 -0.795682
v 3.842582 7.909635 -3.083041
v 2.914733 6.853969 -2.312075
v 2.000000 5.795404 -0.243841
v 3.839957 7.094192 -2.525812
v 2.914405 6.230113 -1.642118
v 2.914077 5.542062 -1.398167
v 6.835966 11.209056 -3.217515
v 4.796659 9.151221 -3.337993
v 5.790082 10.332954 -3.306347
v 4.778944 6.802961 -2.856396
v 4.787802 8.177084 -3.025872
v 6.794957 10.157077 -3.398879
v 5.769086 9.268231 -3.273245
v 5.748090 7.650442 -3.155989
v 13.506645 10.668811 -1.713565
v 9.648252 12.160173 -1.212347
v 9.241604 11.916111 -2.848957
v 9.500318 11.957274 -1.739773
v 8.238446 12.175458 -0.187777
v 8.163157 11.952488 -1.035305
v 9.365114 11.966086 -2.314818
v 8.089460 12.022253 -1.922582
v 8.017224 12.010734 -2.698662
v 14.688688 11.113667 -1.713565
v 11.295836 11.978126 -2.066498
v 11.008364 11.773505 -2.323439
v 13.247613 11.684904 -2.362735
v 12.725190 11.469521 -2.432603
v 10.558825 11.562333 -2.893541
v 10.763863 11.683886 -2.612771
v 14.006315 10.891239 -1.713565
v 12.304624 11.288115 -2.513375
v 11.977602 11.097275 -2.594411
v 8.919535 9.766653 -3.468476
v 9.128329 11.576044 -3.259137
v 7.946268 11.598098 -3.235061
v 9.022157 10.871341 -3.484205
v 7.876199 10.681277 -3.493157
v 7.806575 9.211389 -3.456790
v 13.166899 10.446383 -1.713565
v 10.388332 11.283200 -3.124046
v 11.732461 10.859877 -2.664088
v 10.107271 10.111511 -3.254692
v 10.241809 10.805993 -3.259582
v 12.938128 10.223955 -1.713565
v 11.544139 10.563957 -2.706848
v 11.384227 10.203842 -2.706151
vt 0.000000 0.000000
vt 1.000000 0.000000
vt 1.000000 1.000000
vt 0.000000 1.000000
vt 0.500000 0.000000
vt 0.500000 1.000000
vt 0.500000 0.500000
vt 0.000000 0.500000
vt 0.200000 0.000000
vt 0.200000 0.500000
vt 0.200000 0.166667
vt 0.000000 0.166667
vt 0.100000 0.000000
vt 0.100000 0.166667
vt 0.200000 0.333333
vt 0.000000 0.333333
vt 0.100000 0.333333
vt 0.100000 0.500000
vt 0.500000 0.166667
vt 0.300000 0.000000
vt 0.300000 0.166667
vt 0.400000 0.000000
vt 0.400000 0.166667
vt 0.300000 0.500000
vt 0.300000 0.333333
vt 0.500000 0.333333
vt 0.400000 0.333333
vt 0.400000 0.500000
vt 0.200000 1.000000
vt 0.000000 0.666667
vt 0.200000 0.666667
vt 0.100000 0.666667
vt 0.000000 0.833333
vt 0.200000 0.833333
vt 0.100000 0.833333
vt 0.100000 1.000000
vt 0.500000 0.666667
vt 0.300000 0.666667
vt 0.400000 0.666667
vt 0.300000 1.000000
vt 0.300000 0.833333
vt 0.500000 0.833333
vt 0.400000 0.833333
vt 0.400000 1.000000
vt 1.000000 0.500000
vt 0.700000 0.000000
vt 0.700000 0.500000
vt 0.700000 0.166667
vt 0.600000 0.000000
vt 0.600000 0.166667
vt 0.700000 0.333333
vt 0.600000 0.333333
vt 0.600000 0.500000
vt 1.000000 0.166667
vt 0.800000 0.000000
vt 0.800000 0.166667
vt 0.900000 0.000000
vt 0.900000 0.166667
vt 0.800000 0.500000
vt 0.800000 0.333333
vt 1.000000 0.333333
vt 0.900000 0.333333
vt 0.900000 0.500000
vt 0.700000 1.000000
vt 0.700000 0.666667
vt 0.600000 0.666667
vt 0.700000 0.833333
vt 0.600000 0.833333
vt 0.600000 1.000000
vt 1.000000 0.666667
vt 0.800000 0.666667
vt 0.900000 0.666667
vt 0.800000 1.000000
vt 0.800000 0.833333
vt 1.000000 0.833333
vt 0.900000 0.833333
vt 0.900000 1.000000
vn 0.493205 -0.309400 -0.813032
vn 0.516823 -0.296567 -0.803083
vn 0.431608 -0.174663 -0.884990
vn 0.435594 -0.143983 -0.888553
vn -0.094537 0.031927 -0.995009
vn -0.095510 -0.047728 -0.994284
vn -0.158516 -0.081034 -0.984026
vn -0.053462 -0.079734 -0.995382
vn -0.389960 0.920830 0.001693
vn -0.403570 0.872680 -0.274883
vn -0.568564 0.735492 -0.368492
vn -0.587563 0.805137 -0.080775
vn -0.664969 0.655481 -0.357996
vn -0.493172 0.281865 -0.823002
vn -0.495279 -0.242249 -0.834275
vn -0.696914 0.439974 -0.566334
vn -0.241031 0.757033 -0.607293
vn -0.398724 0.827739 -0.394799
vn -0.495989 0.784068 -0.373139
vn -0.426947 0.679340 -0.596837
vn -0.142093 0.648437 -0.747890
vn -0.444905 0.544751 -0.710849
vn -0.730370 0.146279 -0.667204
vn -0.547631 -0.546700 -0.633419
vn -0.454654 0.861409 -0.226414
vn -0.378960 0.901282 -0.209953
vn -0.375232 0.920311 -0.110580
vn -0.504475 0.850237 -0.150342
vn -0.468761 0.837895 -0.279634
vn -0.541678 0.808443 -0.230226
vn -0.579316 0.589201 -0.563236
vn -0.656277 0.728713 -0.195649
vn -0.525694 -0.186997 -0.829866
vn -0.724927 -0.234009 -0.647858
vn -0.571985 -0.427628 -0.699977
vn -0.242308 -0.365510 -0.898715
vn 0.089953 -0.464041 -0.881234
vn -0.244719 -0.658702 -0.711494
vn -0.511408 -0.646017 -0.566678
vn -0.741635 -0.341000 -0.577664
vn -0.785380 -0.246489 -0.567822
vn -0.230108 0.432135 -0.871958
vn -0.150890 0.199038 -0.968306
vn 0.058440 -0.143798 -0.987880
vn -0.312207 -0.129187 -0.941189
vn -0.069496 -0.218264 -0.973412
vn 0.258058 -0.490241 -0.832508
vn 0.338197 -0.442826 -0.830378
vn 0.368835 -0.018171 -0.929318
vn 0.288234 0.006663 -0.957537
vn 0.087963 0.992416 -0.085866
vn 0.098902 0.905231 -0.413249
vn -0.126868 0.948005 -0.291876
vn -0.105074 0.994263 0.020014
vn -0.253922 0.939556 -0.229692
vn -0.137525 0.936300 -0.323154
vn -0.031890 0.981651 -0.188002
vn -0.179285 0.978617 -0.100828
vn 0.180272 -0.348890 -0.919662
vn 0.193186 -0.483123 -0.853974
vn 0.201161 -0.485465 -0.850799
vn 0.168836 0.011933 -0.985572
vn -0.035696 0.763444 -0.644887
vn 0.026180 0.857457 -0.513890
vn 0.256439 0.691571 -0.675254
vn 0.182115 0.877360 -0.443931
vn 0.059326 -0.025149 -0.997922
vn -0.059096 -0.027781 -0.997866
vn -0.063308 0.099343 -0.993037
vn 0.073852 0.110354 -0.991145
vn 0.072421 0.503175 -0.861145
vn -0.115793 0.528312 -0.841117
vn 0.428953 -0.363530 -0.826949
vn 0.412351 -0.070866 -0.908265
vn 0.262568 0.336100 -0.904486
vn 0.247407 -0.059738 -0.967068
vn 0.262762 0.045967 -0.963765
s 1
g nurbsToPoly1
usemtl initialShadingGroup
f 75/75/1 3/3/2 77/77/3 76/76/4
f 42/42/5 6/6/6 44/44/7 43/43/8
f 26/26/9 7/7/10 28/28/11 27/27/12
f 15/15/13 10/10/14 18/18/15 17/17/16
f 13/13/17 9/9/18 11/11/19 14/14/20
f 1/1/21 13/13/17 14/14/20 12/12/22
f 11/11/19 15/15/13 17/17/16 14/14/20
f 17/17/16 16/16/23 12/12/22 14/14/20
f 18/18/15 8/8/24 16/16/23 17/17/16
f 22/22/25 5/5/26 19/19/27 23/23/28
f 9/9/18 20/20/29 21/21/30 11/11/19
f 20/20/29 22/22/25 23/23/28 21/21/30
f 24/24/31 10/10/14 15/15/13 25/25/32
f 15/15/13 11/11/19 21/21/30 25/25/32
f 19/19/27 26/26/9 27/27/12 23/23/28
f 27/27/12 25/25/32 21/21/30 23/23/28
f 28/28/11 24/24/31 25/25/32 27/27/12
f 29/29/33 36/36/34 35/35/35 34/34/36
f 18/18/15 10/10/14 31/31/37 32/32/38
f 30/30/39 8/8/24 18/18/15 32/32/38
f 32/32/38 31/31/37 34/34/36 35/35/35
f 33/33/40 30/30/39 32/32/38 35/35/35
f 36/36/34 4/4/41 33/33/40 35/35/35
f 7/7/10 37/37/42 39/39/43 28/28/11
f 38/38/44 31/31/37 10/10/14 24/24/31
f 39/39/43 38/38/44 24/24/31 28/28/11
f 40/40/45 29/29/33 34/34/36 41/41/46
f 34/34/36 31/31/37 38/38/44 41/41/46
f 37/37/42 42/42/5 43/43/8 39/39/43
f 43/43/8 41/41/46 38/38/44 39/39/43
f 44/44/7 40/40/45 41/41/46 43/43/8
f 61/61/47 45/45/48 63/63/49 62/62/50
f 51/51/51 47/47/52 53/53/53 52/52/54
f 49/49/55 46/46/56 48/48/57 50/50/58
f 5/5/26 49/49/55 50/50/58 19/19/27
f 48/48/57 51/51/51 52/52/54 50/50/58
f 52/52/54 26/26/9 19/19/27 50/50/58
f 53/53/53 7/7/10 26/26/9 52/52/54
f 57/57/59 2/2/60 54/54/61 58/58/62
f 46/46/56 55/55/63 56/56/64 48/48/57
f 55/55/63 57/57/59 58/58/62 56/56/64
f 59/59/65 47/47/52 51/51/51 60/60/66
f 51/51/51 48/48/57 56/56/64 60/60/66
f 54/54/61 61/61/47 62/62/50 58/58/62
f 62/62/50 60/60/66 56/56/64 58/58/62
f 63/63/49 59/59/65 60/60/66 62/62/50
f 64/64/67 69/69/68 68/68/69 67/67/70
f 53/53/53 47/47/52 65/65/71 66/66/72
f 37/37/42 7/7/10 53/53/53 66/66/72
f 66/66/72 65/65/71 67/67/70 68/68/69
f 42/42/5 37/37/42 66/66/72 68/68/69
f 69/69/68 6/6/6 42/42/5 68/68/69
f 45/45/48 70/70/73 72/72/74 63/63/49
f 71/71/75 65/65/71 47/47/52 59/59/65
f 72/72/74 71/71/75 59/59/65 63/63/49
f 73/73/76 64/64/67 67/67/70 74/74/77
f 67/67/70 65/65/71 71/71/75 74/74/77
f 70/70/73 75/75/1 76/76/4 72/72/74
f 76/76/4 74/74/77 71/71/75 72/72/74
f 77/77/3 73/73/76 74/74/77 76/76/4
